<svg xmlns="http://www.w3.org/2000/svg" fill="none" viewBox="0 0 638 455" className="w-10 h-10 text-primary-foreground">
    <path fill="#fff" d="M67.5 75.5C10.8569 67.6192.955553 25.1269.0357112 2.51252.0128206 1.94976.429879 1.49919.993112 1.49809 89.863 1.32341 294.012 0 404 0c135.625 2.77595 202.513 101.614 219.568 151.222.222.645-.259 1.28-.941 1.286-7.133.062-31.536.489-83.058.492-.348 0-.683-.186-.866-.482C499.143 88.4401 427.92 76.4975 396 75.5c-84 .5-264 2.5-328.5 0Zm93.15 148.111c-66.4525 5.124-85.5129-45.978-87.0978-73.086-.0333-.569.4012-1.025.9704-1.025H261.779c.762 0 1.256.841.892 1.511C200.281 265.992 289.469 379 396.5 379c84.514 0 129.916-49.736 143.323-76.604.327-.657-.167-1.396-.9-1.396H442c-.552 0-1-.448-1-1v-72c0-.552.418-1 .97-1 43.44-.007 141.91-.495 194.154-.5.51 0 .916.363.968.871 7.851 77.784-66.758 231.612-244.592 227.129-208.435-5.255-233.69-203.657-230.679-229.811.077-.661-.508-1.129-1.171-1.078Z" />
</svg>