<svg width="127" height="102" viewBox="0 0 127 102" fill="none" xmlns="http://www.w3.org/2000/svg">
<path d="M51.081 86.6331C51.2947 80.5391 60.8517 68.6231 60.8595 67.4675C60.8678 66.3125 59.4019 65.7955 59.4019 65.7955C59.4019 65.7955 55.0431 71.7071 51.8721 77.1871C49.3503 80.4411 45.712 84.5761 43.653 84.6051C41.3254 84.6391 46.3512 77.5701 46.2282 76.1961C46.1053 74.8231 44.8196 74.6981 44.8196 74.6981C44.8196 74.6981 43.9779 76.2031 42.8225 77.9171C42.8325 76.8991 41.9607 75.4761 39.3844 75.7141C34.7018 76.3681 31.7517 82.0301 31.2627 84.5811C30.9289 86.3221 31.6204 88.9651 33.9658 88.9461C37.0606 88.3521 40.294 83.0621 40.294 83.0621L40.423 83.1001C40.3246 83.4091 39.3505 87.7201 42.4981 87.2861C44.1454 87.0581 47.1083 84.2121 49.6735 81.4051C49.0382 82.8351 48.6421 84.0741 48.6338 84.9521C48.6026 88.1771 49.9523 89.6721 51.061 90.0421C51.7965 90.2881 52.1464 90.1051 52.1464 90.1051C51.4866 89.4911 51.0037 88.8451 51.081 86.6331ZM34.4081 86.7751C31.977 86.8041 35.7878 78.1141 39.8072 77.6791C42.7646 77.3591 41.3972 79.7701 40.6122 80.8451C40.6122 80.8451 35.8506 86.7581 34.4081 86.7751ZM45.5629 68.1239C45.5773 64.7956 61.6088 61.5557 69.7962 62.4929C71.0401 62.6351 70.9484 63.818 70.9484 63.818C70.9484 63.818 70.0688 63.6703 67.0452 63.9025C60.9974 64.3669 56.1552 64.9019 51.3013 66.9158C47.9545 68.3035 47.4204 70.4991 47.4204 70.4991C47.4204 70.4991 45.5557 69.9781 45.5629 68.1239ZM126.303 71.9241C124.709 72.8641 122.734 74.0841 120.932 74.5721C118.522 75.2251 118.943 72.7081 120.242 69.7401C121.332 67.2492 122.123 66.683 122.032 65.9595C121.833 64.372 120.223 64.2852 120.223 64.2852C120.223 64.2852 120.08 64.7849 118.867 66.5599C118.359 65.5443 117.257 64.5253 114.915 64.673C111.293 64.9013 108.112 69.2051 107.035 72.2631C106.151 73.0931 104.827 74.1991 102.86 75.5971C104.1 71.2991 104.759 67.8306 104.705 67.3925C104.524 65.9091 102.781 65.6668 102.781 65.6668C102.781 65.6668 102.86 66.8872 102.043 68.5318C101.857 67.6801 100.976 65.9583 98.2004 66.3696C94.9494 66.8508 92.0294 70.5721 90.7284 73.7431C89.6924 74.7061 88.1594 75.9761 85.9094 77.5661C86.7554 74.8351 87.6194 71.9091 88.5104 68.9141L88.4934 68.9061C88.4974 68.8951 88.4994 68.8851 88.5034 68.8741C88.9334 67.3489 86.9094 66.6583 86.9094 66.6583C86.9094 66.6583 86.5724 68.0707 84.4264 71.9181C82.4484 75.4621 78.1733 79.1591 76.615 79.2271C74.9299 79.3011 80.5484 71.6621 80.3814 70.2671C80.2133 68.8721 78.4526 68.8271 78.4526 68.8271C78.4526 68.8271 74.1438 76.9511 73.9436 78.3591C73.9208 78.5181 73.9091 78.6711 73.908 78.8181C71.8229 81.0041 69.4875 82.6931 67.848 82.7581C64.8756 82.8751 75.7416 65.7412 75.5725 64.3171C75.4028 62.8936 74.0031 62.8186 74.0031 62.8186C74.0031 62.8186 70.0143 70.3271 67.1342 75.1701C66.7748 74.2641 65.6889 72.9201 62.9529 73.3831C58.4456 74.6621 55.9705 79.7681 55.5116 82.4211C55.1989 84.2321 55.3936 86.9541 58.5346 86.1861C61.6305 85.4281 65.1532 80.3391 65.1532 80.3391L65.2928 80.3741C65.1949 80.6981 64.534 82.1641 64.969 83.3121C65.3273 84.2571 66.0672 85.0001 67.2599 84.9831C69.542 84.9521 72.1033 82.6381 74.2184 80.1251C74.61 80.7971 75.3333 81.1521 76.1755 81.1171C79.2092 80.9921 82.9664 76.6311 84.1574 75.1421C84.4994 74.7141 84.8064 74.3431 85.0824 74.0191C84.9154 74.4901 84.1524 76.7111 83.0564 79.4971C82.0534 80.1491 80.9514 80.8421 79.736 81.5771C74.6423 84.6591 72.3692 87.4221 71.4323 90.0301C70.5166 92.5791 71.4362 95.1321 73.8201 95.7871C75.2776 96.1871 78.2345 95.5931 81.0204 90.5571C82.4134 88.0371 83.8144 84.1691 85.2674 79.6161C86.9574 78.4971 88.5894 77.4351 90.0374 76.4171C89.8664 78.5541 90.6244 80.7101 92.8114 79.8201C96.3164 78.3961 100.8 72.8151 100.8 72.8151L100.949 72.8511C100.935 72.9021 100.347 75.0801 99.3494 77.9491C98.2014 78.6781 96.9164 79.4631 95.4774 80.3041C90.3274 83.3131 88.0204 86.0071 87.0614 88.5471C86.1224 91.0291 87.0324 93.5121 89.4274 94.1461C90.8924 94.5341 94.1404 94.1091 97.1964 89.3221C99.3094 86.0141 101.053 81.4741 102.327 77.3801C103.871 76.3541 105.34 75.3771 106.633 74.4551C106.659 76.2981 107.608 78.2541 109.943 77.6321C113.195 76.7681 116.906 71.4211 116.906 71.4211L117.068 71.4591C116.956 71.8221 116.557 73.3801 117.1 75.0621C117.979 76.9161 121.384 76.8731 125.993 73.5271C126.372 73.1781 126.58 72.3421 126.303 71.9241ZM59.0548 84.2371C55.4047 84.5121 59.9938 76.2161 64.0316 75.3471C66.0283 74.9181 66.5339 76.1641 65.0736 78.4051C62.7176 81.6281 60.6019 84.1791 59.0548 84.2371ZM74.3057 93.5641C72.9594 93.6001 72.5684 89.6871 76.7491 85.9261C78.4147 84.4271 80.2739 83.0321 82.1564 81.7181C79.8851 87.1741 76.7369 93.5031 74.3057 93.5641ZM93.6114 77.1601C90.8394 77.2891 95.5674 68.7731 99.0074 68.2766C101.165 67.9649 100.713 70.4701 99.4794 72.1761C99.4774 72.1771 99.4774 72.1781 99.4774 72.1781C97.3214 74.8041 94.8474 77.1031 93.6114 77.1601ZM89.9304 91.9841C88.5744 92.0191 88.2064 88.2121 92.4404 84.5441C94.3344 82.9031 96.4944 81.3311 98.6644 79.8401C96.6234 85.2681 93.4234 91.8931 89.9304 91.9841ZM110.14 75.3481C107.115 75.4931 112.125 67.1194 115.762 66.8564C118.257 66.6757 116.514 68.7211 115.701 69.5601C115.579 69.6851 115.699 69.8611 115.891 69.8681C116.079 69.8751 116.262 69.8771 116.437 69.8721C114.011 72.9911 111.761 75.2711 110.14 75.3481ZM30.0265 86.4981C29.6555 89.6681 26.5957 96.3941 18.0846 99.8391C14.1308 101.439 9.95619 101.887 6.70449 101.328C-0.251807 100.133 -1.06121 95.1241 0.975992 94.7351C0.975992 94.7351 2.08809 99.7691 9.19119 99.5901C15.3753 99.4351 20.0784 95.8831 22.4784 93.5251C27.0741 89.0071 27.0919 84.2491 26.0155 82.7111C24.1195 79.9901 19.995 80.0181 16.7383 79.9661C14.9564 82.8231 13.2924 86.0231 11.8593 90.1531C10.1097 95.3571 10.8095 95.7741 10.8095 95.7741C10.8095 95.7741 8.10139 95.3271 8.69269 93.2361C10.1353 88.1351 12.1742 83.6151 14.1491 79.9421C13.4098 79.9371 12.7355 79.9311 12.538 79.9211C9.12779 79.8461 10.8969 77.9021 14.2993 77.3471C14.4529 77.3241 15.0565 77.1791 15.8225 76.9871C18.138 73.0981 20.0712 70.6041 20.3966 70.0011C20.6169 69.5931 20.3977 68.9451 20.0995 68.6731C20.0995 68.6731 24.4872 68.8161 22.7287 71.2491C21.5933 72.9151 20.4567 74.4801 19.3429 76.0681C19.7674 75.9511 20.0762 75.8611 20.1813 75.8211C22.5969 74.9761 34.0265 70.6461 31.9486 66.6863C31.36 65.5084 28.3871 64.9987 25.4847 65.2958C22.4239 65.6058 19.5549 66.4513 16.4373 67.862C9.76479 70.8811 3.27309 76.8651 3.69199 81.7211C3.29479 82.1621 1.68479 83.1241 1.72429 82.2271C2.11429 73.3021 11.3631 68.0259 15.2084 66.3377C29.72 59.9665 35.0418 64.3636 34.9961 67.0433C34.9255 71.1901 30.204 74.7561 22.9457 77.2861C25.1404 77.8781 30.7548 80.2311 30.0265 86.4981Z" fill="black"/>
<path d="M8.73849 0.353699C8.73849 0.353699 10.1042 6.6549 10.1042 9.8657C10.1042 17.0953 10.1048 38.7824 10.1048 38.7824C10.1104 39.3314 10.1193 39.882 10.1282 40.4343C10.1838 43.969 10.2411 47.6236 9.38329 51.0655C8.42299 54.9181 6.37129 58.2553 3.28649 60.9838L1.65039 62.4297L1.73889 67.7444L2.18279 67.5967C6.50539 66.1626 10.3279 63.9584 13.5456 61.047C16.0841 58.75 17.9879 56.4418 19.3648 53.9914C21.6612 49.9016 22.7021 45.0322 22.6409 38.6694V0.353699H8.73849Z" fill="black"/>
<path d="M63.8778 27.1574L63.87 26.9263C66.981 24.4978 70.2488 21.1035 70.5492 16.9733C70.9431 11.559 69.3871 7.7948 66.2172 4.824C63.3404 2.1264 58.7235 0 45.7579 0C43.8508 0 31.9434 0.363199 31.9434 0.363199C31.9434 0.363199 33.3308 6.7058 33.362 9.8657V29.8954V49.9838C33.3258 53.6635 31.9434 59.4897 31.9434 59.4897C31.9434 59.4897 43.8547 59.732 45.7624 59.8534C46.9968 59.9172 48.2018 59.9497 49.344 59.9497C51.1926 59.9497 52.9155 59.8691 54.6106 59.7035C60.1705 59.1557 64.4547 57.7651 67.7059 55.453C71.6502 52.6496 74.3795 47.9224 74.3795 42.7939C74.3795 29.2211 65.6798 27.9073 63.8778 27.1574ZM46.5279 24.9326C46.4388 24.9326 46.351 24.932 46.2619 24.9315V7.7718C47.265 7.5614 48.2207 7.4545 49.1053 7.4545C54.7341 7.4545 58.1984 11.3172 58.1984 15.2566C58.1984 23.5264 53.1714 24.9326 46.5279 24.9326ZM46.2619 51.7453V32.9333C47.6116 32.7704 49.1615 32.6154 50.6775 32.6154C53.2616 32.6154 55.3461 33.0693 57.049 34.0026C61.0873 36.2157 61.2431 41.0067 60.9783 43.6646C60.7469 45.9561 59.8323 49.0202 56.7875 50.6066C54.807 51.639 51.582 51.8561 49.226 51.8561C47.8847 51.8561 46.7771 51.7851 46.2619 51.7453Z" fill="black"/>
<path d="M111.534 27.1574L111.525 26.9263C114.637 24.4978 117.904 21.1035 118.205 16.9733C118.598 11.559 117.042 7.7948 113.872 4.824C110.996 2.1264 105.339 0 93.4144 0C91.5064 0 79.5996 0.363199 79.5996 0.363199C79.5996 0.363199 80.9874 6.7058 81.0184 9.8657V29.8954V49.9838C80.9824 53.6635 79.5996 59.4897 79.5996 59.4897C79.5996 59.4897 91.5114 59.732 93.4184 59.8534C94.6534 59.9172 95.8584 59.9497 97.0004 59.9497C98.8484 59.9497 100.571 59.8691 102.266 59.7035C107.826 59.1557 112.109 57.7651 115.362 55.453C119.305 52.6496 122.035 47.9224 122.035 42.7939C122.035 29.2211 113.336 27.9073 111.534 27.1574ZM94.1834 24.9326C94.0944 24.9326 94.0074 24.932 93.9174 24.9315V7.7718C94.9204 7.5614 95.8764 7.4545 96.7604 7.4545C102.389 7.4545 105.853 11.3172 105.853 15.2566C105.854 23.5264 100.827 24.9326 94.1834 24.9326ZM93.9174 51.7453V32.9333C95.2674 32.7704 96.8164 32.6154 98.3334 32.6154C100.917 32.6154 103.001 33.0693 104.704 34.0026C108.743 36.2157 108.899 41.0067 108.634 43.6646C108.402 45.9561 107.487 49.0202 104.443 50.6066C102.462 51.639 99.2374 51.8561 96.8814 51.8561C95.5394 51.8561 94.4324 51.7851 93.9174 51.7453Z" fill="black"/>
</svg>
